<?xml version="1.0" encoding="utf-8"?>
<!-- Generator: Adobe Illustrator 24.1.0, SVG Export Plug-In . SVG Version: 6.00 Build 0)  -->
<svg version="1.1" xmlns="http://www.w3.org/2000/svg" xmlns:xlink="http://www.w3.org/1999/xlink" x="0px" y="0px"
	 viewBox="0 0 1800 500" style="enable-background:new 0 0 1800 500;" xml:space="preserve">
<style type="text/css">
	.st0{stroke:#000000;stroke-miterlimit:10;}
	.st1{fill:#FFFFFF;stroke:#000000;stroke-width:5;stroke-miterlimit:10;}
	.st2{fill:#FFFFFF;stroke:#000000;stroke-miterlimit:10;}
	.st3{fill:#FCD8A9;}
	.st4{stroke:#000000;stroke-width:3;stroke-linecap:round;stroke-linejoin:round;stroke-miterlimit:10;}
	.st5{fill:#FF7F86;stroke:#FF7F86;stroke-width:3;stroke-linecap:round;stroke-linejoin:round;stroke-miterlimit:10;}
	.st6{font-family:'PrintClearly';}
	.st7{font-size:200px;}
	.st8{fill:#FF8F6A;stroke:#FFFFFF;stroke-linejoin:round;stroke-miterlimit:10;}
	.st9{fill:none;stroke:#FFE77F;stroke-width:6;stroke-miterlimit:10;}
</style>
<g id="レイヤー_2">
	<path class="st0" d="M853.54,137.4c-16.69-18.24-43.34-18.68-57.02-5.9c-15.12,14.13-14.85,44.81,7.21,61.61"/>
	<path class="st0" d="M987.91,134.78c16.69-18.24,43.34-18.68,57.02-5.9c15.12,14.13,14.85,44.81-7.21,61.61"/>
</g>
<g id="レイヤー_1">
	<path class="st1" d="M1022.64,155.1c-10.93-11.44-45.31-43.36-97.01-42.6c-52.93,0.77-86.26,35.44-95.04,44.57
		c-33.59,34.94-64.81,102.36-36.05,148.13c26.16,41.62,87.52,41.03,133.05,40.64c45.17-0.39,97.59-0.85,123.88-38.02
		C1082.53,263.91,1059.5,193.68,1022.64,155.1z"/>
	<path class="st2" d="M795.2,120.36"/>
	<path class="st0" d="M899.42,203.6c-3.34-3.18-12.35-0.51-16.39,5.24c-1.97,2.8-4.24,8.46-1.31,12.45
		c1.84,2.51,5.14,3.55,7.87,3.28c5.49-0.55,8.19-6.38,9.18-8.52C899.07,215.4,902.89,206.91,899.42,203.6z"/>
	<path class="st0" d="M941.2,203.73c3.34-3.18,12.35-0.51,16.39,5.24c1.97,2.8,4.24,8.46,1.31,12.45c-1.84,2.51-5.14,3.55-7.87,3.28
		c-5.49-0.55-8.19-6.38-9.18-8.52C941.55,215.53,937.73,207.03,941.2,203.73z"/>
	<ellipse class="st3" cx="869.6" cy="230.8" rx="15.73" ry="11.8"/>
	<ellipse class="st3" cx="975.78" cy="230.14" rx="15.73" ry="11.8"/>
	<path class="st4" d="M921.05,227.85c0.48-1.13,1.49-1.88,2.62-1.97c1-0.07,2.28,0.37,2.62,1.31c0.47,1.29-0.91,3.31-2.62,3.28
		C922.44,230.45,921.25,229.37,921.05,227.85z"/>
	<path class="st5" d="M1052.14,337.31"/>
	<text transform="matrix(1 0 0 1 73.8066 295.5303)" class="st6 st7">mikaryna</text>
	<text transform="matrix(1 0 0 1 1111.991 295.2948)" class="st6 st7">mikaryna</text>
	<polygon class="st8" points="885,327 961.5,371.5 961.5,327 885,371.5 	"/>
	<ellipse class="st9" cx="923.5" cy="112.5" rx="87" ry="12"/>
</g>
<g id="レイヤー_3">
</g>
</svg>
